<svg width="100%" height="100%" viewBox="0 0 545 289" fill="none" xmlns="http://www.w3.org/2000/svg" class="relative"><path fill-rule="evenodd" clip-rule="evenodd" d="M15.1246 44.3125L15.1247 245.198C15.1247 258.545 25.9591 269.365 39.3241 269.365L505.163 269.365C518.528 269.365 529.363 258.545 529.363 245.198L529.363 44.3125C529.363 30.9657 518.528 20.1459 505.163 20.1459L39.3241 20.1459C25.9591 20.1459 15.1246 30.9657 15.1246 44.3125ZM-1.71658e-06 245.198C-7.6854e-07 266.887 17.606 284.469 39.3241 284.469L505.163 284.469C526.882 284.469 544.488 266.887 544.488 245.198L544.488 44.3125C544.488 22.6238 526.882 5.0417 505.163 5.0417L39.3241 5.04172C17.606 5.04172 -1.14456e-05 22.6239 -1.04976e-05 44.3125L-1.71658e-06 245.198Z" fill="black"></path><rect x="98.3101" y="5.04163" width="4.53122" height="63.5236" transform="rotate(-90 98.3101 5.04163)" fill="black"></rect><rect x="101.335" y="289" width="4.53125" height="33.2742" transform="rotate(-90 101.335 289)" fill="black"></rect><rect x="142.172" y="289" width="4.53125" height="33.2742" transform="rotate(-90 142.172 289)" fill="black"></rect></svg>